<svg id="wave" style="transform:rotate(180deg); transition: 0.3s" viewBox="0 0 1440 490" version="1.1" xmlns="http://www.w3.org/2000/svg"><defs><linearGradient id="sw-gradient-0" x1="0" x2="0" y1="1" y2="0"><stop stop-color="rgba(243, 106, 62, 1)" offset="0%"></stop><stop stop-color="rgba(243, 106, 62, 1)" offset="100%"></stop></linearGradient></defs><path style="transform:translate(0, 0px); opacity:1" fill="url(#sw-gradient-0)" d="M0,441L30,375.7C60,310,120,180,180,179.7C240,180,300,310,360,375.7C420,441,480,441,540,375.7C600,310,660,180,720,155.2C780,131,840,212,900,228.7C960,245,1020,196,1080,147C1140,98,1200,49,1260,65.3C1320,82,1380,163,1440,163.3C1500,163,1560,82,1620,98C1680,114,1740,229,1800,236.8C1860,245,1920,147,1980,122.5C2040,98,2100,147,2160,147C2220,147,2280,98,2340,114.3C2400,131,2460,212,2520,220.5C2580,229,2640,163,2700,179.7C2760,196,2820,294,2880,334.8C2940,376,3000,359,3060,351.2C3120,343,3180,343,3240,302.2C3300,261,3360,180,3420,138.8C3480,98,3540,98,3600,106.2C3660,114,3720,131,3780,163.3C3840,196,3900,245,3960,285.8C4020,327,4080,359,4140,375.7C4200,392,4260,392,4290,392L4320,392L4320,490L4290,490C4260,490,4200,490,4140,490C4080,490,4020,490,3960,490C3900,490,3840,490,3780,490C3720,490,3660,490,3600,490C3540,490,3480,490,3420,490C3360,490,3300,490,3240,490C3180,490,3120,490,3060,490C3000,490,2940,490,2880,490C2820,490,2760,490,2700,490C2640,490,2580,490,2520,490C2460,490,2400,490,2340,490C2280,490,2220,490,2160,490C2100,490,2040,490,1980,490C1920,490,1860,490,1800,490C1740,490,1680,490,1620,490C1560,490,1500,490,1440,490C1380,490,1320,490,1260,490C1200,490,1140,490,1080,490C1020,490,960,490,900,490C840,490,780,490,720,490C660,490,600,490,540,490C480,490,420,490,360,490C300,490,240,490,180,490C120,490,60,490,30,490L0,490Z"></path></svg>