<svg id="wave" style="transform:rotate(180deg); transition: 0.3s" viewBox="0 0 1440 490" version="1.1" xmlns="http://www.w3.org/2000/svg"><defs><linearGradient id="sw-gradient-0" x1="0" x2="0" y1="1" y2="0"><stop stop-color="rgba(243, 106, 62, 1)" offset="0%"></stop><stop stop-color="rgba(243, 106, 62, 1)" offset="100%"></stop></linearGradient></defs><path style="transform:translate(0, 0px); opacity:1" fill="url(#sw-gradient-0)" d="M0,49L30,65.3C60,82,120,114,180,130.7C240,147,300,147,360,147C420,147,480,147,540,122.5C600,98,660,49,720,24.5C780,0,840,0,900,24.5C960,49,1020,98,1080,122.5C1140,147,1200,147,1260,179.7C1320,212,1380,278,1440,253.2C1500,229,1560,114,1620,81.7C1680,49,1740,98,1800,163.3C1860,229,1920,310,1980,285.8C2040,261,2100,131,2160,89.8C2220,49,2280,98,2340,98C2400,98,2460,49,2520,40.8C2580,33,2640,65,2700,73.5C2760,82,2820,65,2880,49C2940,33,3000,16,3060,16.3C3120,16,3180,33,3240,57.2C3300,82,3360,114,3420,114.3C3480,114,3540,82,3600,122.5C3660,163,3720,278,3780,310.3C3840,343,3900,294,3960,302.2C4020,310,4080,376,4140,351.2C4200,327,4260,212,4290,155.2L4320,98L4320,490L4290,490C4260,490,4200,490,4140,490C4080,490,4020,490,3960,490C3900,490,3840,490,3780,490C3720,490,3660,490,3600,490C3540,490,3480,490,3420,490C3360,490,3300,490,3240,490C3180,490,3120,490,3060,490C3000,490,2940,490,2880,490C2820,490,2760,490,2700,490C2640,490,2580,490,2520,490C2460,490,2400,490,2340,490C2280,490,2220,490,2160,490C2100,490,2040,490,1980,490C1920,490,1860,490,1800,490C1740,490,1680,490,1620,490C1560,490,1500,490,1440,490C1380,490,1320,490,1260,490C1200,490,1140,490,1080,490C1020,490,960,490,900,490C840,490,780,490,720,490C660,490,600,490,540,490C480,490,420,490,360,490C300,490,240,490,180,490C120,490,60,490,30,490L0,490Z"></path></svg>