<svg id="wave" style="transform:rotate(180deg); transition: 0.3s" viewBox="0 0 1440 490" version="1.1" xmlns="http://www.w3.org/2000/svg"><defs><linearGradient id="sw-gradient-0" x1="0" x2="0" y1="1" y2="0"><stop stop-color="rgba(243, 106, 62, 1)" offset="0%"></stop><stop stop-color="rgba(243, 106, 62, 1)" offset="100%"></stop></linearGradient></defs><path style="transform:translate(0, 0px); opacity:1" fill="url(#sw-gradient-0)" d="M0,196L30,220.5C60,245,120,294,180,261.3C240,229,300,114,360,65.3C420,16,480,33,540,89.8C600,147,660,245,720,269.5C780,294,840,245,900,228.7C960,212,1020,229,1080,204.2C1140,180,1200,114,1260,89.8C1320,65,1380,82,1440,130.7C1500,180,1560,261,1620,277.7C1680,294,1740,245,1800,196C1860,147,1920,98,1980,138.8C2040,180,2100,310,2160,310.3C2220,310,2280,180,2340,147C2400,114,2460,180,2520,171.5C2580,163,2640,82,2700,49C2760,16,2820,33,2880,32.7C2940,33,3000,16,3060,73.5C3120,131,3180,261,3240,294C3300,327,3360,261,3420,253.2C3480,245,3540,294,3600,269.5C3660,245,3720,147,3780,138.8C3840,131,3900,212,3960,220.5C4020,229,4080,163,4140,122.5C4200,82,4260,65,4290,57.2L4320,49L4320,490L4290,490C4260,490,4200,490,4140,490C4080,490,4020,490,3960,490C3900,490,3840,490,3780,490C3720,490,3660,490,3600,490C3540,490,3480,490,3420,490C3360,490,3300,490,3240,490C3180,490,3120,490,3060,490C3000,490,2940,490,2880,490C2820,490,2760,490,2700,490C2640,490,2580,490,2520,490C2460,490,2400,490,2340,490C2280,490,2220,490,2160,490C2100,490,2040,490,1980,490C1920,490,1860,490,1800,490C1740,490,1680,490,1620,490C1560,490,1500,490,1440,490C1380,490,1320,490,1260,490C1200,490,1140,490,1080,490C1020,490,960,490,900,490C840,490,780,490,720,490C660,490,600,490,540,490C480,490,420,490,360,490C300,490,240,490,180,490C120,490,60,490,30,490L0,490Z"></path></svg>